<svg width="200" height="200" viewBox="0 0 200 200" fill="none" xmlns="http://www.w3.org/2000/svg">
<g clip-path="url(#clip0)">
<path d="M58.332 191.862C52.8275 191.491 48.1579 189.945 44.3232 187.224C40.4886 184.564 37.4271 181.193 35.1387 177.111C32.8503 173.029 31.2731 168.514 30.4072 163.566C29.6032 158.618 29.4486 153.701 29.9434 148.815L31.9844 133.044C32.4173 129.086 32.3555 125.591 31.7988 122.561C31.2422 119.468 30.1289 116.87 28.459 114.768C26.8509 112.603 24.6553 110.933 21.8721 109.758C19.0889 108.583 15.6562 107.902 11.5742 107.717L12.9658 94.3574C21.501 94.2337 28.2425 92.0999 33.1904 87.9561C38.2002 83.7503 41.3236 77.349 42.5605 68.752L44.6016 52.9805C45.3438 47.2904 46.7044 41.9095 48.6836 36.8379C50.7246 31.7044 53.415 27.1895 56.7549 23.293C60.0947 19.3965 64.1149 16.2422 68.8154 13.8301C73.516 11.3561 78.9277 9.93359 85.0508 9.5625L85.9785 20.417C81.4635 20.7262 77.7526 21.8704 74.8457 23.8496C71.9388 25.8288 69.5576 28.3646 67.7021 31.457C65.9085 34.4876 64.5479 37.8893 63.6201 41.6621C62.6924 45.4349 61.9811 49.2077 61.4863 52.9805L59.4453 68.752C58.3939 76.8542 55.6725 83.5648 51.2812 88.8838C46.89 94.141 40.9834 98.3467 33.5615 101.501C36.5303 103.109 39.0661 105.057 41.1689 107.346C43.2718 109.572 44.9417 112.046 46.1787 114.768C47.4157 117.489 48.2197 120.427 48.5908 123.581C49.0238 126.674 49.0856 129.859 48.7764 133.137L46.8281 148.908C46.457 152.001 46.2406 155.34 46.1787 158.928C46.1169 162.515 46.488 165.855 47.292 168.947C48.1579 172.102 49.6113 174.792 51.6523 177.019C53.7552 179.307 56.7549 180.699 60.6514 181.193L58.332 191.862ZM122.609 119.963H99.323L85.4998 158H72.0477L85.9637 119.963H64.6258L66.8523 107.253H90.4168L102.385 74.4111H79.284L81.6033 61.5156H107.023L121.125 22.9219H134.577L120.383 61.5156H143.576L157.77 22.9219H171.13L157.028 61.5156H175.304L173.078 74.4111H152.389L140.514 107.253H160.646L158.42 119.963H135.969L122.145 158H108.693L122.609 119.963ZM103.869 107.253H127.062L139.03 74.4111H115.744L103.869 107.253Z" fill="#29323D"/>
<path d="M58.332 191.862L58.2648 192.86L59.1259 192.918L59.3092 192.075L58.332 191.862ZM44.3232 187.224L44.902 186.408L44.8931 186.402L44.3232 187.224ZM30.4072 163.566L29.4201 163.727L29.4222 163.739L30.4072 163.566ZM29.9434 148.815L28.9516 148.687L28.9498 148.701L28.9484 148.715L29.9434 148.815ZM31.9844 133.044L32.9761 133.172L32.9774 133.162L32.9784 133.153L31.9844 133.044ZM31.7988 122.561L30.8146 122.738L30.8153 122.741L31.7988 122.561ZM28.459 114.768L27.6562 115.364L27.6659 115.377L27.6759 115.389L28.459 114.768ZM21.8721 109.758L22.261 108.837L21.8721 109.758ZM11.5742 107.717L10.5796 107.613L10.4698 108.668L11.5288 108.716L11.5742 107.717ZM12.9658 94.3574L12.9513 93.3575L12.0632 93.3704L11.9712 94.2538L12.9658 94.3574ZM33.1904 87.9561L33.8325 88.7227L33.8334 88.7219L33.1904 87.9561ZM42.5605 68.752L43.5504 68.8944L43.5514 68.8873L43.5523 68.8803L42.5605 68.752ZM44.6016 52.9805L43.61 52.8511L43.6098 52.8521L44.6016 52.9805ZM48.6836 36.8379L47.7543 36.4684L47.752 36.4743L48.6836 36.8379ZM68.8154 13.8301L69.272 14.7198L69.2812 14.715L68.8154 13.8301ZM85.0508 9.5625L86.0471 9.47734L85.9641 8.50531L84.9903 8.56433L85.0508 9.5625ZM85.9785 20.417L86.0468 21.4147L87.0615 21.3452L86.9749 20.3318L85.9785 20.417ZM67.7021 31.457L66.8446 30.9425L66.8416 30.9477L67.7021 31.457ZM61.4863 52.9805L60.4948 52.8504L60.4946 52.8521L61.4863 52.9805ZM59.4453 68.752L60.437 68.8806L60.437 68.8803L59.4453 68.752ZM51.2812 88.8838L52.0487 89.5249L52.0524 89.5204L51.2812 88.8838ZM33.5615 101.501L33.1704 100.581L31.261 101.392L33.0852 102.38L33.5615 101.501ZM41.1689 107.346L40.4325 108.022L40.4419 108.032L41.1689 107.346ZM48.5908 123.581L47.5977 123.698L47.599 123.709L47.6005 123.72L48.5908 123.581ZM48.7764 133.137L49.7688 133.259L49.7706 133.245L49.7719 133.231L48.7764 133.137ZM46.8281 148.908L45.8357 148.786L45.8352 148.789L46.8281 148.908ZM47.292 168.947L46.3241 169.199L46.3277 169.212L47.292 168.947ZM51.6523 177.019L50.9152 177.694L50.916 177.695L51.6523 177.019ZM60.6514 181.193L61.6285 181.406L61.8605 180.339L60.7773 180.201L60.6514 181.193ZM58.3993 190.865C53.0465 190.504 48.5618 189.005 44.902 186.408L43.7445 188.039C47.7539 190.885 52.6085 192.479 58.2648 192.86L58.3993 190.865ZM44.8931 186.402C41.1836 183.829 38.2253 180.572 36.011 176.622L34.2664 177.6C36.6288 181.814 39.7936 185.299 43.7533 188.045L44.8931 186.402ZM36.011 176.622C33.7816 172.646 32.2401 168.239 31.3923 163.394L29.4222 163.739C30.3061 168.79 31.9189 173.413 34.2664 177.6L36.011 176.622ZM31.3943 163.406C30.604 158.543 30.4525 153.713 30.9383 148.916L28.9484 148.715C28.4447 153.69 28.6024 158.694 29.4202 163.727L31.3943 163.406ZM30.9351 148.944L32.9761 133.172L30.9926 132.916L28.9516 148.687L30.9351 148.944ZM32.9784 133.153C33.419 129.124 33.3608 125.529 32.7824 122.38L30.8153 122.741C31.3501 125.653 31.4156 129.047 30.9903 132.935L32.9784 133.153ZM32.783 122.383C32.2021 119.156 31.0309 116.398 29.2421 114.146L27.6759 115.389C29.2269 117.343 30.2823 119.78 30.8146 122.738L32.783 122.383ZM29.2617 114.171C27.5348 111.847 25.1884 110.073 22.261 108.837L21.4831 110.679C24.1221 111.793 26.167 113.359 27.6562 115.364L29.2617 114.171ZM22.261 108.837C19.3379 107.602 15.7809 106.907 11.6196 106.718L11.5288 108.716C15.5316 108.898 18.8399 109.563 21.4831 110.679L22.261 108.837ZM12.5688 107.82L13.9604 94.461L11.9712 94.2538L10.5796 107.613L12.5688 107.82ZM12.9803 95.3573C21.6707 95.2314 28.6587 93.0558 33.8325 88.7227L32.5484 87.1894C27.8264 91.1441 21.3313 93.2361 12.9513 93.3575L12.9803 95.3573ZM33.8334 88.7219C39.0861 84.3123 42.29 77.6536 43.5504 68.8944L41.5707 68.6095C40.3571 77.0443 37.3143 83.1884 32.5475 87.1902L33.8334 88.7219ZM43.5523 68.8803L45.5933 53.1088L43.6098 52.8521L41.5688 68.6236L43.5523 68.8803ZM45.5932 53.1098C46.3255 47.4956 47.667 42.1937 49.6152 37.2014L47.752 36.4743C45.7419 41.6253 44.362 47.0851 43.61 52.8511L45.5932 53.1098ZM49.6128 37.2074C51.6162 32.1686 54.2514 27.7503 57.5141 23.9438L55.9956 22.6422C52.5787 26.6286 49.833 31.2403 47.7543 36.4684L49.6128 37.2074ZM57.5141 23.9438C60.767 20.1487 64.6834 17.0744 69.272 14.7198L68.3589 12.9404C63.5464 15.4099 59.4224 18.6442 55.9956 22.6422L57.5141 23.9438ZM69.2812 14.715C73.8382 12.3166 79.108 10.9245 85.1113 10.5607L84.9903 8.56433C78.7475 8.94268 73.1937 10.3957 68.3497 12.9452L69.2812 14.715ZM84.0544 9.64766L84.9821 20.5022L86.9749 20.3318L86.0471 9.47734L84.0544 9.64766ZM85.9102 19.4193C81.2679 19.7373 77.3729 20.9192 74.2829 23.023L75.4085 24.6762C78.1323 22.8217 81.6592 21.7152 86.0468 21.4147L85.9102 19.4193ZM74.2829 23.023C71.2532 25.0858 68.7727 27.7292 66.8447 30.9425L68.5596 31.9715C70.3426 29 72.6244 26.5718 75.4085 24.6762L74.2829 23.023ZM66.8416 30.9477C64.9932 34.0708 63.5978 37.5652 62.649 41.4233L64.5912 41.9009C65.4979 38.2135 66.8238 34.9045 68.5627 31.9664L66.8416 30.9477ZM62.649 41.4233C61.7127 45.2312 60.9945 49.0403 60.4948 52.8504L62.4778 53.1105C62.9677 49.3751 63.6721 45.6386 64.5912 41.9009L62.649 41.4233ZM60.4946 52.8521L58.4536 68.6236L60.437 68.8803L62.4781 53.1088L60.4946 52.8521ZM58.4536 68.6233C57.4219 76.5737 54.7609 83.0982 50.5101 88.2471L52.0524 89.5204C56.5841 84.0313 59.3659 77.1347 60.437 68.8806L58.4536 68.6233ZM50.5138 88.2427C46.2406 93.3585 40.4722 97.4774 33.1704 100.581L33.9527 102.421C41.4946 99.216 47.5393 94.9234 52.0487 89.5249L50.5138 88.2427ZM33.0852 102.38C35.9651 103.94 38.4108 105.822 40.4326 108.022L41.9053 106.669C39.7213 104.292 37.0955 102.278 34.0378 100.622L33.0852 102.38ZM40.4419 108.032C42.4709 110.181 44.0781 112.563 45.2683 115.181L47.0891 114.354C45.8053 111.53 44.0727 108.964 41.896 106.659L40.4419 108.032ZM45.2683 115.181C46.4599 117.803 47.2379 120.64 47.5977 123.698L49.584 123.464C49.2016 120.214 48.3714 117.175 47.0891 114.354L45.2683 115.181ZM47.6005 123.72C48.0221 126.731 48.0831 129.838 47.7808 133.043L49.7719 133.231C50.0881 129.879 50.0255 126.616 49.5812 123.442L47.6005 123.72ZM47.7839 133.014L45.8357 148.786L47.8206 149.031L49.7688 133.259L47.7839 133.014ZM45.8352 148.789C45.4595 151.92 45.2412 155.294 45.1789 158.91L47.1786 158.945C47.2399 155.387 47.4545 152.081 47.821 149.027L45.8352 148.789ZM45.1789 158.91C45.1156 162.577 45.4947 166.009 46.3242 169.199L48.2598 168.696C47.4812 165.701 47.1181 162.452 47.1786 158.945L45.1789 158.91ZM46.3277 169.212C47.232 172.506 48.7582 175.341 50.9152 177.694L52.3895 176.343C50.4645 174.243 49.0837 171.697 48.2563 168.683L46.3277 169.212ZM50.916 177.695C53.2172 180.199 56.4581 181.669 60.5254 182.185L60.7773 180.201C57.0517 179.728 54.2932 178.414 52.3887 176.342L50.916 177.695ZM59.6742 180.981L57.3549 191.65L59.3092 192.075L61.6285 181.406L59.6742 180.981ZM122.609 119.963L123.548 120.306L124.04 118.963H122.609V119.963ZM99.323 119.963V118.963H98.6225L98.3832 119.621L99.323 119.963ZM85.4998 158V159H86.2004L86.4397 158.342L85.4998 158ZM72.0477 158L71.1085 157.656L70.617 159H72.0477V158ZM85.9637 119.963L86.9028 120.306L87.3943 118.963H85.9637V119.963ZM64.6258 119.963L63.6408 119.79L63.4354 120.963H64.6258V119.963ZM66.8523 107.253V106.253H66.0123L65.8673 107.08L66.8523 107.253ZM90.4168 107.253V108.253H91.1167L91.3564 107.595L90.4168 107.253ZM102.385 74.4111L103.324 74.7535L103.813 73.4111H102.385V74.4111ZM79.284 74.4111L78.2998 74.2341L78.0881 75.4111H79.284V74.4111ZM81.6033 61.5156V60.5156H80.7671L80.6191 61.3386L81.6033 61.5156ZM107.023 61.5156V62.5156H107.723L107.963 61.8588L107.023 61.5156ZM121.125 22.9219V21.9219H120.426L120.186 22.5787L121.125 22.9219ZM134.577 22.9219L135.515 23.2671L136.01 21.9219H134.577V22.9219ZM120.383 61.5156L119.444 61.1704L118.949 62.5156H120.383V61.5156ZM143.576 61.5156V62.5156H144.274L144.515 61.8608L143.576 61.5156ZM157.77 22.9219V21.9219H157.073L156.832 22.5767L157.77 22.9219ZM171.13 22.9219L172.069 23.2651L172.56 21.9219H171.13V22.9219ZM157.028 61.5156L156.089 61.1724L155.598 62.5156H157.028V61.5156ZM175.304 61.5156L176.29 61.6858L176.492 60.5156H175.304V61.5156ZM173.078 74.4111V75.4111H173.92L174.063 74.5813L173.078 74.4111ZM152.389 74.4111V73.4111H151.688L151.449 74.0711L152.389 74.4111ZM140.514 107.253L139.574 106.913L139.09 108.253H140.514V107.253ZM160.646 107.253L161.631 107.425L161.837 106.253H160.646V107.253ZM158.42 119.963V120.963H159.26L159.405 120.135L158.42 119.963ZM135.969 119.963V118.963H135.268L135.029 119.621L135.969 119.963ZM122.145 158V159H122.846L123.085 158.342L122.145 158ZM108.693 158L107.754 157.656L107.262 159H108.693V158ZM103.869 107.253L102.929 106.913L102.444 108.253H103.869V107.253ZM127.062 107.253V108.253H127.762L128.002 107.595L127.062 107.253ZM139.03 74.4111L139.97 74.7535L140.459 73.4111H139.03V74.4111ZM115.744 74.4111V73.4111H115.042L114.804 74.0711L115.744 74.4111ZM122.609 118.963H99.323V120.963H122.609V118.963ZM98.3832 119.621L84.5599 157.658L86.4397 158.342L100.263 120.304L98.3832 119.621ZM85.4998 157H72.0477V159H85.4998V157ZM72.9868 158.344L86.9028 120.306L85.0245 119.619L71.1085 157.656L72.9868 158.344ZM85.9637 118.963H64.6258V120.963H85.9637V118.963ZM65.6108 120.135L67.8373 107.425L65.8673 107.08L63.6408 119.79L65.6108 120.135ZM66.8523 108.253H90.4168V106.253H66.8523V108.253ZM91.3564 107.595L103.324 74.7535L101.445 74.0688L89.4772 106.911L91.3564 107.595ZM102.385 73.4111H79.284V75.4111H102.385V73.4111ZM80.2682 74.5881L82.5875 61.6926L80.6191 61.3386L78.2998 74.2341L80.2682 74.5881ZM81.6033 62.5156H107.023V60.5156H81.6033V62.5156ZM107.963 61.8588L122.064 23.2651L120.186 22.5787L106.084 61.1724L107.963 61.8588ZM121.125 23.9219H134.577V21.9219H121.125V23.9219ZM133.638 22.5767L119.444 61.1704L121.321 61.8608L135.515 23.2671L133.638 22.5767ZM120.383 62.5156H143.576V60.5156H120.383V62.5156ZM144.515 61.8608L158.709 23.2671L156.832 22.5767L142.637 61.1704L144.515 61.8608ZM157.77 23.9219H171.13V21.9219H157.77V23.9219ZM170.19 22.5787L156.089 61.1724L157.967 61.8588L172.069 23.2651L170.19 22.5787ZM157.028 62.5156H175.304V60.5156H157.028V62.5156ZM174.319 61.3455L172.093 74.241L174.063 74.5813L176.29 61.6858L174.319 61.3455ZM173.078 73.4111H152.389V75.4111H173.078V73.4111ZM151.449 74.0711L139.574 106.913L141.455 107.593L153.33 74.7512L151.449 74.0711ZM140.514 108.253H160.646V106.253H140.514V108.253ZM159.661 107.08L157.435 119.79L159.405 120.135L161.631 107.425L159.661 107.08ZM158.42 118.963H135.969V120.963H158.42V118.963ZM135.029 119.621L121.205 157.658L123.085 158.342L136.908 120.304L135.029 119.621ZM122.145 157H108.693V159H122.145V157ZM109.632 158.344L123.548 120.306L121.67 119.619L107.754 157.656L109.632 158.344ZM103.869 108.253H127.062V106.253H103.869V108.253ZM128.002 107.595L139.97 74.7535L138.091 74.0688L126.123 106.911L128.002 107.595ZM139.03 73.4111H115.744V75.4111H139.03V73.4111ZM114.804 74.0711L102.929 106.913L104.809 107.593L116.684 74.7512L114.804 74.0711Z" fill="#29323D"/>
</g>
<defs>
<clipPath id="clip0">
<rect width="200" height="200" fill="white"/>
</clipPath>
</defs>
</svg>
