<svg width="200" height="200" viewBox="0 0 200 200" fill="none" xmlns="http://www.w3.org/2000/svg">
<path d="M148.851 162.586H140.027L134.789 177H129.691L134.964 162.586H126.878L127.722 157.77H136.652L141.187 145.324H132.433L133.312 140.438H142.945L148.289 125.812H153.386L148.007 140.438H156.796L162.175 125.812H167.238L161.894 140.438H168.82L167.976 145.324H160.136L155.636 157.77H163.265L162.421 162.586H153.914L148.675 177H143.578L148.851 162.586ZM141.75 157.77H150.539L155.074 145.324H146.25L141.75 157.77ZM162.24 185.859C163.81 185.766 165.135 185.32 166.213 184.523C167.314 183.727 168.228 182.73 168.955 181.535C169.681 180.363 170.244 179.062 170.642 177.633C171.041 176.227 171.345 174.855 171.556 173.52L172.33 167.578C172.728 164.531 173.748 162.012 175.388 160.02C177.029 158.004 179.256 156.41 182.068 155.238C180.943 154.629 179.982 153.891 179.185 153.023C178.412 152.156 177.791 151.207 177.322 150.176C176.853 149.121 176.537 148.008 176.373 146.836C176.232 145.641 176.22 144.422 176.338 143.18L177.111 137.168C177.205 136.324 177.287 135.457 177.357 134.566C177.451 133.676 177.474 132.797 177.427 131.93C177.404 131.062 177.299 130.23 177.111 129.434C176.947 128.637 176.654 127.934 176.232 127.324C175.81 126.691 175.248 126.164 174.545 125.742C173.842 125.32 172.963 125.051 171.908 124.934L172.927 120.926C175.037 121.066 176.806 121.641 178.236 122.648C179.689 123.656 180.838 124.934 181.681 126.48C182.525 128.004 183.076 129.703 183.334 131.578C183.615 133.453 183.65 135.328 183.439 137.203L182.701 143.215C182.373 146.238 182.806 148.559 184.002 150.176C185.22 151.77 187.365 152.637 190.435 152.777L189.908 157.84C186.674 157.934 184.107 158.766 182.209 160.336C180.31 161.906 179.138 164.32 178.693 167.578L177.92 173.52C177.638 175.652 177.099 177.68 176.302 179.602C175.529 181.523 174.498 183.223 173.209 184.699C171.943 186.199 170.42 187.418 168.638 188.355C166.881 189.293 164.865 189.832 162.592 189.973L162.24 185.859Z" fill="#333F4D"/>
<path d="M66.293 153.277H40.1719L41.1211 147.934H67.2422L66.293 153.277ZM96.3811 153.277H70.26L71.2092 147.934H97.3303L96.3811 153.277ZM126.469 153.277H100.348L101.297 147.934H127.418L126.469 153.277Z" fill="#333F4D"/>
<path d="M27.5469 78.832C25.4609 78.6914 23.6914 78.1055 22.2383 77.0742C20.7852 76.0664 19.625 74.7891 18.7578 73.2422C17.8906 71.6953 17.293 69.9844 16.9648 68.1094C16.6602 66.2344 16.6016 64.3711 16.7891 62.5195L17.5625 56.543C17.7266 55.043 17.7031 53.7188 17.4922 52.5703C17.2812 51.3984 16.8594 50.4141 16.2266 49.6172C15.6172 48.7969 14.7852 48.1641 13.7305 47.7188C12.6758 47.2734 11.375 47.0156 9.82812 46.9453L10.3555 41.8828C13.5898 41.8359 16.1445 41.0273 18.0195 39.457C19.918 37.8633 21.1016 35.4375 21.5703 32.1797L22.3438 26.2031C22.625 24.0469 23.1406 22.0078 23.8906 20.0859C24.6641 18.1406 25.6836 16.4297 26.9492 14.9531C28.2148 13.4766 29.7383 12.2812 31.5195 11.3672C33.3008 10.4297 35.3516 9.89062 37.6719 9.75L38.0234 13.8633C36.3125 13.9805 34.9062 14.4141 33.8047 15.1641C32.7031 15.9141 31.8008 16.875 31.0977 18.0469C30.418 19.1953 29.9023 20.4844 29.5508 21.9141C29.1992 23.3438 28.9297 24.7734 28.7422 26.2031L27.9688 32.1797C27.5703 35.25 26.5391 37.793 24.875 39.8086C23.2109 41.8008 20.9727 43.3945 18.1602 44.5898C19.2852 45.1992 20.2461 45.9375 21.043 46.8047C21.8398 47.6484 22.4727 48.5859 22.9414 49.6172C23.4102 50.6484 23.7148 51.7617 23.8555 52.957C24.0195 54.1289 24.043 55.3359 23.9258 56.5781L23.1875 62.5547C23.0469 63.7266 22.9648 64.9922 22.9414 66.3516C22.918 67.7109 23.0586 68.9766 23.3633 70.1484C23.6914 71.3438 24.2422 72.3633 25.0156 73.207C25.8125 74.0742 26.9492 74.6016 28.4258 74.7891L27.5469 78.832ZM51.9045 51.5859H43.0803L37.842 66H32.7444L38.0178 51.5859H29.9319L30.7756 46.7695H39.7053L44.2405 34.3242H35.4866L36.3655 29.4375H45.9983L51.342 14.8125H56.4397L51.0608 29.4375H59.8498L65.2288 14.8125H70.2913L64.9475 29.4375H71.8733L71.0295 34.3242H63.1897L58.6897 46.7695H66.3186L65.4748 51.5859H56.967L51.7288 66H46.6311L51.9045 51.5859ZM44.803 46.7695H53.592L58.1272 34.3242H49.303L44.803 46.7695Z" fill="#333F4D"/>
<path d="M95.293 44.2773H69.1719L70.1211 38.9336H96.2422L95.293 44.2773ZM125.381 44.2773H99.26L100.209 38.9336H126.33L125.381 44.2773ZM155.469 44.2773H129.348L130.297 38.9336H156.418L155.469 44.2773Z" fill="#333F4D"/>
</svg>
